<?xml version="1.0" encoding="utf-8"?>
<!-- Generator: Adobe Illustrator 16.0.0, SVG Export Plug-In . SVG Version: 6.00 Build 0)  -->
<!DOCTYPE svg PUBLIC "-//W3C//DTD SVG 1.1//EN" "http://www.w3.org/Graphics/SVG/1.1/DTD/svg11.dtd">
<svg version="1.1" id="Layer_1" xmlns="http://www.w3.org/2000/svg" xmlns:xlink="http://www.w3.org/1999/xlink" x="0px" y="0px"
	 width="500px" height="175.145px" viewBox="0 0 500 175.145" enable-background="new 0 0 500 175.145" xml:space="preserve">
<g>
	<g>
		<g>
			<path fill="#FBA919" d="M35.022,112.115V51.894h17.113l14.962,30.578l14.868-30.578h17.02v60.222H81.404V82.004l-9.631,19.825
				h-9.445l-9.725-19.825v30.111H35.022z"/>
			<path fill="#FBA919" d="M109.551,112.115V80.602h-6.453l1.497-12.811h22.536v44.325H109.551z M108.148,61.899V49.182h18.983
				v12.718H108.148z"/>
			<path fill="#FBA919" d="M135.546,112.115V67.791h16.458l0.467,3.366c1.684-1.122,3.912-2.118,6.687-2.992
				c2.773-0.873,5.751-1.309,8.931-1.309c5.547,0,9.6,1.371,12.156,4.114c2.556,2.744,3.834,6.982,3.834,12.718v28.428h-17.581
				V85.464c0-1.995-0.437-3.428-1.309-4.302c-0.874-0.872-2.4-1.309-4.582-1.309c-1.309,0-2.665,0.313-4.067,0.935
				c-1.403,0.624-2.542,1.373-3.413,2.245v29.083H135.546z"/>
		</g>
	</g>
	<g>
		<g>
			<path fill="#FBA919" d="M327.65,128.931c-4.365,1.257-8.424,1.64-12.18,1.156c-3.756-0.484-6.981-1.906-9.681-4.26
				c-2.7-2.355-4.663-5.662-5.889-9.922c-1.71-5.944-1.393-11.172,0.95-15.691c2.344-4.517,6.854-7.738,13.534-9.661
				c6.099-1.756,11.317-1.577,15.657,0.535c4.337,2.111,7.278,5.848,8.822,11.211l1.885,6.548l-25.955,7.47
				c1.259,1.802,3.01,2.836,5.25,3.102c2.241,0.266,5.069-0.093,8.488-1.077c2.155-0.62,4.268-1.441,6.338-2.464
				c2.067-1.023,3.685-1.986,4.849-2.89l2.563,8.913C339.102,124.696,334.226,127.039,327.65,128.931z M312.481,108.271
				l13.173-3.791l-0.387-1.342c-0.422-1.471-1.232-2.549-2.426-3.231c-1.191-0.681-2.944-0.69-5.259-0.024
				c-2.576,0.742-4.223,1.799-4.938,3.172S311.875,106.167,312.481,108.271z"/>
		</g>
	</g>
	<g>
		<g>
			<path fill="#2D8ACA" d="M211.289,164.034c-3.208-0.361-6.673-0.871-10.4-1.522c-3.73-0.653-7.234-1.443-10.515-2.368
				c-3.282-0.929-5.978-1.882-8.092-2.863l1.861-16.482c2.379,1.104,5.163,2.112,8.352,3.029c3.188,0.916,6.462,1.704,9.821,2.36
				c3.355,0.657,6.453,1.146,9.294,1.467c4.852,0.548,8.703,0.726,11.554,0.54c2.85-0.19,4.349-0.926,4.493-2.207
				c0.124-1.099-0.257-1.86-1.134-2.283c-0.879-0.426-2.604-0.781-5.166-1.069l-17.169-1.939c-6.687-0.754-11.715-2.413-15.09-4.973
				c-3.376-2.559-4.817-5.991-4.332-10.296c0.682-6.044,4.498-9.879,11.454-11.506c-3.539-2.348-6.011-5.082-7.421-8.211
				c-1.41-3.125-1.859-6.932-1.352-11.42c0.95-8.425,4.508-14.282,10.679-17.575c6.166-3.289,14.653-4.328,25.458-3.107
				c2.288,0.258,4.835,0.709,7.64,1.349c2.802,0.642,4.829,1.171,6.079,1.591l25.551,2.884l-2.316,15.597l-8.654-0.977
				c1.409,2.294,1.944,4.95,1.604,7.972c-0.755,6.686-3.296,11.754-7.629,15.206c-4.334,3.454-10.664,4.709-18.996,3.769
				c-1.193-0.135-2.466-0.349-3.825-0.641c-1.359-0.293-2.629-0.551-3.808-0.777c-2.035-0.043-3.817,0.125-5.342,0.51
				c-1.528,0.384-2.363,1.218-2.508,2.499c-0.103,0.916,0.239,1.582,1.027,1.993c0.786,0.415,1.914,0.703,3.379,0.87l14.972,1.688
				c6.684,0.755,11.774,2.908,15.27,6.454c3.495,3.548,4.901,8.343,4.219,14.388c-0.724,6.408-4.261,11.041-10.612,13.896
				C233.282,164.729,223.833,165.45,211.289,164.034z M220.078,105.902c4.027,0.455,6.896,0.083,8.612-1.115
				c1.71-1.198,2.746-3.398,3.108-6.604c0.362-3.205-0.153-5.627-1.542-7.27c-1.395-1.64-4.104-2.688-8.131-3.143
				c-3.757-0.424-6.559-0.022-8.415,1.207c-1.855,1.229-2.968,3.49-3.34,6.786c-0.352,3.115,0.194,5.471,1.638,7.072
				C213.448,104.437,216.14,105.458,220.078,105.902z"/>
		</g>
	</g>
	<g>
		<g>
			<path fill="#FBA919" d="M292.063,168.81c-9.668,0-16.56-2.055-20.67-6.168c-4.112-4.109-6.169-10.557-6.169-19.336V54.79h31.34
				v85.015c0,2.445,0.5,4.084,1.5,4.918c1,0.833,2.556,1.249,4.668,1.249c1.443,0,2.86-0.109,4.25-0.333
				c1.389-0.221,2.693-0.555,3.919-0.999v20.836c-2.893,1.113-5.698,1.942-8.419,2.5C299.758,168.531,296.286,168.81,292.063,168.81
				z"/>
		</g>
	</g>
	<g>
		<g>
			<path fill="#2D8ACA" d="M335.394,170.078c-7.748,0-13.461-1.719-17.143-5.155c-3.683-3.437-5.524-8.455-5.524-15.057
				c0-6.547,1.854-11.551,5.564-15.015c3.71-3.463,9.411-5.196,17.103-5.196c7.745,0,13.487,1.733,17.225,5.196
				c3.736,3.464,5.604,8.468,5.604,15.015c0,6.602-1.855,11.62-5.564,15.057C348.948,168.359,343.193,170.078,335.394,170.078z
				 M335.394,158.867c2.509,0,4.323-0.708,5.44-2.127c1.118-1.419,1.679-3.71,1.679-6.874c0-3.108-0.561-5.386-1.679-6.833
				c-1.117-1.444-2.932-2.168-5.44-2.168c-2.455,0-4.228,0.724-5.318,2.168c-1.092,1.447-1.637,3.725-1.637,6.833
				c0,3.164,0.545,5.455,1.637,6.874C331.166,158.159,332.938,158.867,335.394,158.867z"/>
			<path fill="#2D8ACA" d="M376.061,170.078c-2.455,0-4.733-0.438-6.833-1.311c-2.1-0.871-3.777-2.235-5.031-4.091
				c-1.256-1.853-1.884-4.199-1.884-7.036c0-4.092,1.364-7.269,4.092-9.533c2.729-2.264,6.846-3.396,12.357-3.396h10.064v-0.736
				c0-1.526-0.628-2.646-1.882-3.354c-1.257-0.708-3.465-1.063-6.63-1.063c-4.472,0-8.892,0.683-13.255,2.045v-9.246
				c1.965-0.764,4.419-1.404,7.364-1.923c2.946-0.518,5.945-0.777,9.001-0.777c6.165,0,11.048,1.256,14.647,3.764
				c3.601,2.511,5.401,6.493,5.401,11.947v23.894h-13.421l-0.736-3.11c-1.363,1.201-3.123,2.155-5.276,2.865
				C381.883,169.723,379.225,170.078,376.061,170.078z M381.298,161.077c1.746,0,3.231-0.3,4.46-0.9
				c1.227-0.601,2.25-1.335,3.068-2.21v-4.828h-7.446c-3.384,0-5.073,1.338-5.073,4.01
				C376.307,159.767,377.969,161.077,381.298,161.077z"/>
			<path fill="#2D8ACA" d="M410.426,169.26v-38.786h14.402l0.41,2.945c1.472-0.981,3.422-1.853,5.85-2.618
				c2.428-0.764,5.033-1.146,7.814-1.146c4.855,0,8.4,1.2,10.638,3.601c2.237,2.401,3.354,6.11,3.354,11.129v24.875h-15.382v-23.32
				c0-1.745-0.383-3.001-1.146-3.765c-0.765-0.764-2.102-1.145-4.01-1.145c-1.146,0-2.332,0.271-3.56,0.818
				c-1.228,0.544-2.223,1.199-2.987,1.963v25.448H410.426z"/>
			<path fill="#2D8ACA" d="M474.988,170.078c-3.328,0-6.452-0.232-9.369-0.695c-2.92-0.463-5.224-1.051-6.915-1.76v-11.046
				c1.909,0.873,4.186,1.554,6.833,2.045c2.646,0.491,4.896,0.736,6.751,0.736c1.963,0,3.449-0.055,4.46-0.163
				c1.009-0.109,1.513-0.573,1.513-1.392c0-0.927-0.899-1.637-2.699-2.128c-1.802-0.49-4.066-1.199-6.793-2.127
				c-3.545-1.254-6.19-2.727-7.937-4.42c-1.747-1.688-2.619-4.144-2.619-7.364c0-3.872,1.527-6.858,4.583-8.959
				c3.055-2.1,7.855-3.15,14.402-3.15c2.507,0,5.1,0.191,7.772,0.572c2.673,0.383,4.773,0.818,6.301,1.31v10.801
				c-1.636-0.707-3.423-1.227-5.359-1.555c-1.938-0.326-3.695-0.49-5.277-0.49c-1.747,0-3.303,0.082-4.665,0.245
				c-1.364,0.163-2.045,0.628-2.045,1.392c0,0.873,0.776,1.501,2.331,1.882c1.556,0.383,3.642,0.981,6.26,1.8
				c2.946,0.873,5.251,1.829,6.915,2.864c1.663,1.036,2.836,2.29,3.518,3.764c0.683,1.473,1.023,3.302,1.023,5.482
				c0,3.929-1.595,6.97-4.786,9.125S481.261,170.078,474.988,170.078z"/>
		</g>
	</g>
	<polygon fill="#2D8ACA" points="5.269,64.2 109.188,4.178 186.315,64.2 109.188,14.015 	"/>
	<polygon fill="#FBA919" points="5.367,64.2 106.223,4.178 186.414,64.2 106.223,14.015 	"/>
	<path fill="#2D8ACA" d="M117.575,45.683c-6.839,0-12.384,4.519-12.384,10.091c0,5.575,5.544,10.091,12.384,10.091
		c6.836,0,12.379-4.516,12.379-10.091C129.954,50.202,124.411,45.683,117.575,45.683z M117.574,61.572
		c-4.319,0-7.821-2.596-7.821-5.798c0-3.202,3.501-5.798,7.821-5.798c4.317,0,7.818,2.597,7.818,5.798
		C125.392,58.977,121.891,61.572,117.574,61.572z"/>
	<path fill="#EEC71C" d="M245.285,29.157c9.306,3.222,17.417,16.489,18.51,26.045c1.297,11.369-7.201,18.71-18.571,20.008
		c-11.369,1.298-21.306-3.936-22.606-15.306c-1.09-9.554,3.823-24.309,12.161-29.55h0.004l10.498-1.198H245.285z"/>
	<path fill="#F16A35" d="M248.044,19.143l-2.333,8.451l-11.718,1.339l-4.126-7.436c-0.128-0.569,0.508-1.123,1.179-1.237
		c0.672-0.115,1.345,0.084,1.978,0.278c0.633,0.187,1.311,0.375,1.976,0.246c1.436-0.278,2.409-1.926,3.844-1.717
		c0.866,0.126,1.424,0.921,2.294,1.04c1.081,0.151,1.949-0.772,2.908-1.264C245.297,18.202,246.995,18.329,248.044,19.143z"/>
	<path fill="#EEC71C" d="M248.044,19.143l-2.333,8.451l-11.718,1.339l-4.126-7.436c-0.128-0.569,0.508-1.123,1.179-1.237
		c0.672-0.115,1.345,0.084,1.978,0.278c0.633,0.187,1.311,0.375,1.976,0.246c1.436-0.278,2.409-1.926,3.844-1.717
		c0.866,0.126,1.424,0.921,2.294,1.04c1.081,0.151,1.949-0.772,2.908-1.264C245.297,18.202,246.995,18.329,248.044,19.143z"/>
	<polygon fill="#A56327" points="245.711,27.593 245.285,29.157 245.28,29.157 234.782,30.355 234.778,30.355 233.994,28.933 	"/>
	<polygon fill="#A56327" points="241.938,28.782 241.656,40.109 243.992,39.842 242.718,28.692 	"/>
	<polygon fill="#A56327" points="242.462,28.722 244.842,37.282 246.792,37.058 243.031,28.657 	"/>
	<path fill="#EFA542" d="M243.728,28.663c0.062,0.523-0.399,1.003-1.025,1.074c-0.631,0.073-1.184-0.29-1.245-0.813
		c-0.061-0.521,0.4-1.001,1.028-1.074C243.112,27.781,243.673,28.144,243.728,28.663z"/>
	<g>
		<path fill="#F2B461" d="M233.994,28.933l0.617-0.07l0.171,1.493l-0.303,0.038c-0.177,0.019-0.333-0.107-0.354-0.28L233.994,28.933
			z"/>
	</g>
	<g>
		<path fill="#F2B461" d="M245.711,27.593l-0.619,0.074l0.17,1.492l0.302-0.034c0.175-0.021,0.302-0.18,0.285-0.353L245.711,27.593z
			"/>
	</g>
	<g>
		<path fill="#FFFFFF" d="M246.59,44.817l5.448-0.623l-1.58,3.056c0,0-0.624,0.074-3.493,0.4c-0.213,7.233-8.779,8.441-8.779,8.441
			l0.026,0.244l12.949,12.674l-4.83,0.553l-12.583-12.304l-0.315-2.76c3.26-0.078,5.402-0.725,6.807-1.583
			c0.016-0.007,0.03-0.02,0.046-0.031c3.237-1.893,2.569-4.764,2.569-4.764l-11.02,1.256l1.617-2.979c0,0,3.437-0.393,8.804-1.006
			c-1.082-2.628-5.021-2.589-5.547-2.507c-0.524,0.078-5.547,0.632-5.547,0.632l1.608-3.096l18.687-2.134l-1.67,3.12
			c0,0-3.46,0.4-5.002,0.575C246.108,43.01,246.59,44.817,246.59,44.817z"/>
	</g>
</g>
</svg>
